# xmcd
#
# Track frame offsets: 
#        150
#        59448
#        103746
#        135369
#        169617
#        225765
#
# Disc length: 3867 seconds
#
# Revision: 0
# Processed by: cddbd v1.5.2PL0 Copyright (c) Steve Scherf et al.
# Submitted via: ExactAudioCopy v1.0b1
#
DISCID=3f0f1906
DTITLE=Ginger Jam Band - Jam am Fluss
DYEAR=2009
DGENRE=Blues
TTITLE0=Flesh and skin
TTITLE1=Red house
TTITLE2=Out the window
TTITLE3=All along the watchtower
TTITLE4=Winds of dust
TTITLE5=Fire on the mountain
EXTD=
EXTT0=
EXTT1=
EXTT2=
EXTT3=
EXTT4=
EXTT5=
PLAYORDER=
